<svg id="visual" viewBox="0 0 960 200" width="960" height="200" xmlns="http://www.w3.org/2000/svg" xmlns:xlink="http://www.w3.org/1999/xlink" version="1.1"><path d="M0 103L16 97.2C32 91.3 64 79.7 96 75.3C128 71 160 74 192 79.5C224 85 256 93 288 94C320 95 352 89 384 83C416 77 448 71 480 69.8C512 68.7 544 72.3 576 76C608 79.7 640 83.3 672 83.3C704 83.3 736 79.7 768 81.8C800 84 832 92 864 93.2C896 94.3 928 88.7 944 85.8L960 83L960 201L944 201C928 201 896 201 864 201C832 201 800 201 768 201C736 201 704 201 672 201C640 201 608 201 576 201C544 201 512 201 480 201C448 201 416 201 384 201C352 201 320 201 288 201C256 201 224 201 192 201C160 201 128 201 96 201C64 201 32 201 16 201L0 201Z" fill="#22d3ee"></path><path d="M0 76L16 78.5C32 81 64 86 96 93.2C128 100.3 160 109.7 192 110C224 110.3 256 101.7 288 100C320 98.3 352 103.7 384 108.2C416 112.7 448 116.3 480 113.5C512 110.7 544 101.3 576 100.8C608 100.3 640 108.7 672 112.7C704 116.7 736 116.3 768 111.3C800 106.3 832 96.7 864 98.3C896 100 928 113 944 119.5L960 126L960 201L944 201C928 201 896 201 864 201C832 201 800 201 768 201C736 201 704 201 672 201C640 201 608 201 576 201C544 201 512 201 480 201C448 201 416 201 384 201C352 201 320 201 288 201C256 201 224 201 192 201C160 201 128 201 96 201C64 201 32 201 16 201L0 201Z" fill="#00bffb"></path><path d="M0 119L16 119.5C32 120 64 121 96 120.5C128 120 160 118 192 116.7C224 115.3 256 114.7 288 113.7C320 112.7 352 111.3 384 115C416 118.7 448 127.3 480 128.2C512 129 544 122 576 118.8C608 115.7 640 116.3 672 118C704 119.7 736 122.3 768 120C800 117.7 832 110.3 864 110.2C896 110 928 117 944 120.5L960 124L960 201L944 201C928 201 896 201 864 201C832 201 800 201 768 201C736 201 704 201 672 201C640 201 608 201 576 201C544 201 512 201 480 201C448 201 416 201 384 201C352 201 320 201 288 201C256 201 224 201 192 201C160 201 128 201 96 201C64 201 32 201 16 201L0 201Z" fill="#00a8ff"></path><path d="M0 145L16 147.8C32 150.7 64 156.3 96 156.5C128 156.7 160 151.3 192 148.7C224 146 256 146 288 145C320 144 352 142 384 144.3C416 146.7 448 153.3 480 153.7C512 154 544 148 576 144.8C608 141.7 640 141.3 672 140.2C704 139 736 137 768 138.5C800 140 832 145 864 146.8C896 148.7 928 147.3 944 146.7L960 146L960 201L944 201C928 201 896 201 864 201C832 201 800 201 768 201C736 201 704 201 672 201C640 201 608 201 576 201C544 201 512 201 480 201C448 201 416 201 384 201C352 201 320 201 288 201C256 201 224 201 192 201C160 201 128 201 96 201C64 201 32 201 16 201L0 201Z" fill="#3f8aff"></path><path d="M0 163L16 161.5C32 160 64 157 96 157.5C128 158 160 162 192 165.8C224 169.7 256 173.3 288 172C320 170.7 352 164.3 384 162.7C416 161 448 164 480 165.8C512 167.7 544 168.3 576 169.5C608 170.7 640 172.3 672 171.2C704 170 736 166 768 166C800 166 832 170 864 172.2C896 174.3 928 174.7 944 174.8L960 175L960 201L944 201C928 201 896 201 864 201C832 201 800 201 768 201C736 201 704 201 672 201C640 201 608 201 576 201C544 201 512 201 480 201C448 201 416 201 384 201C352 201 320 201 288 201C256 201 224 201 192 201C160 201 128 201 96 201C64 201 32 201 16 201L0 201Z" fill="#8b5cf6"></path></svg>
