<svg id="visual" viewBox="0 0 960 540" width="960" height="540" xmlns="http://www.w3.org/2000/svg" xmlns:xlink="http://www.w3.org/1999/xlink" version="1.1"><path d="M0 423L16 416C32 409 64 395 96 389.8C128 384.7 160 388.3 192 395C224 401.7 256 411.3 288 412.7C320 414 352 407 384 399.8C416 392.7 448 385.3 480 383.8C512 382.3 544 386.7 576 391.2C608 395.7 640 400.3 672 400.5C704 400.7 736 396.3 768 398.8C800 401.3 832 410.7 864 412C896 413.3 928 406.7 944 403.3L960 400L960 541L944 541C928 541 896 541 864 541C832 541 800 541 768 541C736 541 704 541 672 541C640 541 608 541 576 541C544 541 512 541 480 541C448 541 416 541 384 541C352 541 320 541 288 541C256 541 224 541 192 541C160 541 128 541 96 541C64 541 32 541 16 541L0 541Z" fill="#22d3ee"></path><path d="M0 391L16 394C32 397 64 403 96 411.7C128 420.3 160 431.7 192 432.2C224 432.7 256 422.3 288 420.2C320 418 352 424 384 429.3C416 434.7 448 439.3 480 436.2C512 433 544 422 576 421.3C608 420.7 640 430.3 672 435C704 439.7 736 439.3 768 433.3C800 427.3 832 415.7 864 417.7C896 419.7 928 435.3 944 443.2L960 451L960 541L944 541C928 541 896 541 864 541C832 541 800 541 768 541C736 541 704 541 672 541C640 541 608 541 576 541C544 541 512 541 480 541C448 541 416 541 384 541C352 541 320 541 288 541C256 541 224 541 192 541C160 541 128 541 96 541C64 541 32 541 16 541L0 541Z" fill="#00bffb"></path><path d="M0 443L16 443.7C32 444.3 64 445.7 96 445.2C128 444.7 160 442.3 192 440.7C224 439 256 438 288 436.8C320 435.7 352 434.3 384 438.8C416 443.3 448 453.7 480 454.7C512 455.7 544 447.3 576 443.3C608 439.3 640 439.7 672 441.5C704 443.3 736 446.7 768 443.8C800 441 832 432 864 431.8C896 431.7 928 440.3 944 444.7L960 449L960 541L944 541C928 541 896 541 864 541C832 541 800 541 768 541C736 541 704 541 672 541C640 541 608 541 576 541C544 541 512 541 480 541C448 541 416 541 384 541C352 541 320 541 288 541C256 541 224 541 192 541C160 541 128 541 96 541C64 541 32 541 16 541L0 541Z" fill="#00a8ff"></path><path d="M0 475L16 478.3C32 481.7 64 488.3 96 488.5C128 488.7 160 482.3 192 479.2C224 476 256 476 288 474.7C320 473.3 352 470.7 384 473.5C416 476.3 448 484.7 480 485.2C512 485.7 544 478.3 576 474.3C608 470.3 640 469.7 672 468.2C704 466.7 736 464.3 768 466.2C800 468 832 474 864 476.2C896 478.3 928 476.7 944 475.8L960 475L960 541L944 541C928 541 896 541 864 541C832 541 800 541 768 541C736 541 704 541 672 541C640 541 608 541 576 541C544 541 512 541 480 541C448 541 416 541 384 541C352 541 320 541 288 541C256 541 224 541 192 541C160 541 128 541 96 541C64 541 32 541 16 541L0 541Z" fill="#3f8aff"></path><path d="M0 496L16 494.2C32 492.3 64 488.7 96 489.2C128 489.7 160 494.3 192 499C224 503.7 256 508.3 288 506.7C320 505 352 497 384 495C416 493 448 497 480 499.3C512 501.7 544 502.3 576 503.7C608 505 640 507 672 505.5C704 504 736 499 768 498.8C800 498.7 832 503.3 864 506C896 508.7 928 509.3 944 509.7L960 510L960 541L944 541C928 541 896 541 864 541C832 541 800 541 768 541C736 541 704 541 672 541C640 541 608 541 576 541C544 541 512 541 480 541C448 541 416 541 384 541C352 541 320 541 288 541C256 541 224 541 192 541C160 541 128 541 96 541C64 541 32 541 16 541L0 541Z" fill="#8b5cf6"></path></svg>